<svg width="77" height="61" viewBox="0 0 77 61" fill="none" xmlns="http://www.w3.org/2000/svg">
<path d="M56.6 8.121C55.72 8.121 55 7.405 55 6.521V1.60001C55 0.716006 54.28 0 53.4 0H23.6C22.72 0 22 0.716006 22 1.60001V6.521C22 7.405 21.28 8.121 20.4 8.121H1.59998C0.719976 8.121 0 8.83701 0 9.72101V58.513C0 59.397 0.719976 60.113 1.59998 60.113H75.4C76.28 60.113 77 59.397 77 58.513V9.72101C77 8.83701 76.28 8.121 75.4 8.121H56.6ZM25.78 5.38101C25.78 4.49701 26.5 3.78101 27.38 3.78101H49.62C50.5 3.78101 51.22 4.49701 51.22 5.38101V6.51199C51.22 7.39599 50.5 8.112 49.62 8.112H27.38C26.5 8.112 25.78 7.39599 25.78 6.51199V5.38101ZM73.22 54.732C73.22 55.615 72.5 56.332 71.62 56.332H5.38C4.5 56.332 3.78003 55.615 3.78003 54.732V53.738C3.78003 52.854 4.5 52.138 5.38 52.138H71.62C72.5 52.138 73.22 52.854 73.22 53.738V54.732ZM73.22 49.154C73.22 50.038 72.5 50.754 71.62 50.754H5.38C4.5 50.754 3.78003 50.038 3.78003 49.154V13.502C3.78003 12.618 4.5 11.902 5.38 11.902H71.62C72.5 11.902 73.22 12.618 73.22 13.502V49.154Z" fill="#644FC1"/>
</svg>
