<svg width="244" height="208" viewBox="0 0 244 208" fill="none" xmlns="http://www.w3.org/2000/svg">
<path d="M209.41 196.56C209.41 196.56 220.58 184.85 228.48 167.75C245.8 130.21 231.07 88.9903 204.04 80.8703C151.44 65.0803 160.89 142.06 81.5298 71.4601C36.1998 31.1301 0 69.3103 0 89.9103C0 109.88 3.78998 122.56 53.98 140.58C91.26 153.96 -2.99016 162.14 12.0898 192.89C20.4798 210.01 209.41 196.56 209.41 196.56Z" fill="#EDE9FE"/>
<path d="M243.5 201.16C243.5 204.7 189.909 207.57 123.799 207.57C57.6993 207.57 4.10938 204.7 4.10938 201.16C4.10938 197.63 57.6993 194.76 123.799 194.76C189.909 194.76 243.5 197.63 243.5 201.16Z" fill="#ACBFE2"/>
<path d="M53.3203 1.41992C53.3203 1.41992 58.7806 28.62 73.6006 51C73.6006 51 62.6803 16.0399 53.3203 1.41992Z" fill="#353A66"/>
<path d="M95.0093 0C95.0093 0 82.3896 24.7102 80.0996 51.4502C80.0996 51.4502 93.2593 17.27 95.0093 0Z" fill="#FFB025"/>
<path d="M132.549 25.8496C132.549 25.8496 106.46 35.28 86.5195 53.25C86.5195 53.25 119.479 37.2696 132.549 25.8496Z" fill="#D086E5"/>
<path d="M140.089 58.9005C140.089 58.9005 112.91 53.3106 86.5195 58.2306C86.5195 58.2306 122.969 61.8205 140.089 58.9005Z" fill="#7585F8"/>
<path d="M131.89 91.1201C131.89 91.1201 112.039 71.7296 87.1895 61.5996C87.1895 61.5996 115.92 84.3201 131.89 91.1201Z" fill="#353A66"/>
<path d="M93.0088 112.33C93.0088 112.33 91.4991 84.6204 80.0391 60.3604C80.0391 60.3604 85.8488 96.5201 93.0088 112.33Z" fill="#FFB025"/>
<path d="M47.1602 108.82C47.1602 108.82 64.65 87.2796 72.46 61.5996C72.46 61.5996 52.4702 92.2903 47.1602 108.82Z" fill="#353A66"/>
<path d="M18.8906 57.5498C18.8906 57.5498 46.1104 62.9103 72.4604 57.7803C72.4604 57.7803 35.9806 54.4898 18.8906 57.5498Z" fill="#7585F8"/>
<path d="M37.0605 32.3203C37.0605 32.3203 51.5503 46.2001 69.5903 53.3301C69.5903 53.3301 48.6605 37.1203 37.0605 32.3203Z" fill="#FFB025"/>
<path d="M36.4609 81.1104C36.4609 81.1104 55.4812 74.7198 70.1812 62.0498C70.1812 62.0498 46.1009 73.0704 36.4609 81.1104Z" fill="#D086E5"/>
<path d="M74.2696 102.39C74.2696 102.39 78.7194 82.8304 75.5694 63.6904C75.5694 63.6904 72.4296 89.9796 74.2696 102.39Z" fill="#353A66"/>
<path d="M103.871 91.3203C103.871 91.3203 97.4304 76.2296 86.1504 65.0596C86.1504 65.0596 96.6906 83.9903 103.871 91.3203Z" fill="#353A66"/>
<path d="M76.6401 42.9297C76.6401 42.9297 77.59 30.08 73.75 18.21C73.75 18.21 74.2801 35.2197 76.6401 42.9297Z" fill="#353A66"/>
<path d="M89.5898 42.2402C89.5898 42.2402 100.37 35.1904 107.47 24.9404C107.47 24.9404 94.2698 35.6802 89.5898 42.2402Z" fill="#353A66"/>
<path d="M63.7701 9.92937L65.5601 13.5593C65.6101 13.6593 65.7101 13.7299 65.8301 13.7399L69.8301 14.3298C70.1101 14.3698 70.2301 14.7196 70.0201 14.9196L67.1202 17.7497C67.0402 17.8297 67.0001 17.9395 67.0201 18.0495L67.71 22.0397C67.76 22.3297 67.4603 22.5498 67.2003 22.4098L63.6202 20.5192C63.5202 20.4692 63.3999 20.4692 63.2999 20.5192L59.7203 22.4098C59.4603 22.5498 59.16 22.3297 59.21 22.0397L59.8902 18.0495C59.9102 17.9395 59.8701 17.8297 59.7901 17.7497L56.9 14.9196C56.69 14.7196 56.7999 14.3698 57.0899 14.3298L61.0899 13.7399C61.2099 13.7299 61.3099 13.6593 61.3599 13.5593L63.15 9.92937C63.27 9.66938 63.6401 9.66938 63.7701 9.92937Z" fill="#FFB025"/>
<path d="M59.7106 22.4102L59.8908 22.3203L66.0206 13.7803L65.8205 13.7402C65.7105 13.7302 65.6107 13.6596 65.5607 13.5596L64.9708 12.3604L59.6706 19.3203L59.2106 22.04C59.1606 22.33 59.4606 22.5502 59.7106 22.4102Z" fill="#FED150"/>
<path d="M63.6201 20.5303L63.7598 20.5996L68.0898 14.0801L67.27 13.9502L62.2402 21.0801L63.2998 20.5303C63.3998 20.4703 63.5201 20.4703 63.6201 20.5303Z" fill="#FED150"/>
<path d="M59.73 15.1904C59.78 15.1304 59.8901 14.8799 59.8901 14.8799C59.8901 14.8799 60.0001 15.1197 60.0601 15.1797C60.1301 15.2397 60.3799 15.3398 60.3799 15.3398C60.3799 15.3398 60.1398 15.4595 60.0698 15.5195C60.0098 15.5795 59.9102 15.8301 59.9102 15.8301C59.9102 15.8301 59.8002 15.5903 59.7402 15.5303C59.6702 15.4703 59.4199 15.3701 59.4199 15.3701C59.4199 15.3701 59.67 15.2604 59.73 15.1904Z" fill="#F7F7FC"/>
<path d="M113.62 79.0397L115.419 82.6696C115.459 82.7796 115.559 82.85 115.669 82.86L119.68 83.4401C119.97 83.4901 120.08 83.8397 119.87 84.0397L116.97 86.86C116.89 86.95 116.849 87.0596 116.879 87.1696L117.56 91.1598C117.61 91.4398 117.31 91.66 117.06 91.53L113.47 89.6393C113.37 89.5893 113.249 89.5893 113.149 89.6393L109.569 91.53C109.309 91.66 109.01 91.4398 109.06 91.1598L109.75 87.1696C109.76 87.0596 109.73 86.95 109.64 86.86L106.75 84.0397C106.54 83.8397 106.65 83.4901 106.94 83.4401L110.95 82.86C111.06 82.85 111.16 82.7796 111.21 82.6696L113 79.0397C113.12 78.7797 113.49 78.7797 113.62 79.0397Z" fill="#FFB025"/>
<path d="M109.57 91.5303L109.75 91.4297L115.88 82.8896L115.68 82.8604C115.56 82.8504 115.47 82.7799 115.42 82.6699L114.83 81.4805L109.53 88.4404L109.06 91.1602C109.01 91.4502 109.31 91.6603 109.57 91.5303Z" fill="#FED150"/>
<path d="M113.47 89.6504L113.62 89.7197L117.94 83.1904L117.12 83.0703L112.09 90.2002L113.15 89.6504C113.25 89.5904 113.37 89.5904 113.47 89.6504Z" fill="#FED150"/>
<path d="M109.569 84.3096C109.629 84.2496 109.74 84 109.74 84C109.74 84 109.85 84.2398 109.91 84.2998C109.98 84.3598 110.229 84.46 110.229 84.46C110.229 84.46 109.989 84.5796 109.919 84.6396C109.859 84.6996 109.759 84.9502 109.759 84.9502C109.759 84.9502 109.65 84.7104 109.58 84.6504C109.52 84.5904 109.27 84.4902 109.27 84.4902C109.27 84.4902 109.509 84.3796 109.569 84.3096Z" fill="#F7F7FC"/>
<path d="M53.5098 81.5302L54.5801 83.7001C54.6101 83.7601 54.67 83.7995 54.73 83.8095L57.1202 84.16C57.2902 84.18 57.3603 84.3896 57.2403 84.5096L55.5098 86.2001C55.4598 86.2501 55.4402 86.3098 55.4502 86.3798L55.8599 88.7596C55.8899 88.9296 55.7101 89.0604 55.5601 88.9804L53.42 87.8602C53.36 87.8202 53.29 87.8202 53.23 87.8602L51.0899 88.9804C50.9399 89.0604 50.7601 88.9296 50.7901 88.7596L51.2002 86.3798C51.2102 86.3098 51.1902 86.2401 51.1402 86.2001L49.4102 84.5096C49.2902 84.3896 49.3498 84.18 49.5298 84.16L51.92 83.8095C51.98 83.7995 52.0399 83.7601 52.0699 83.7001L53.1402 81.5302C53.2102 81.3702 53.4298 81.3702 53.5098 81.5302Z" fill="#FFB025"/>
<path d="M51.0904 88.9805L51.1905 88.9199L54.8506 83.8301L54.7305 83.8096C54.6705 83.7996 54.6106 83.7604 54.5806 83.6904L54.2305 82.9805L51.0606 87.1299L50.7906 88.7598C50.7606 88.9298 50.9304 89.0605 51.0904 88.9805Z" fill="#FED150"/>
<path d="M53.4194 87.8604L53.5093 87.9004L56.0894 84.0098L55.5996 83.9404L52.5996 88.1904L53.2295 87.8604C53.2895 87.8204 53.3594 87.8204 53.4194 87.8604Z" fill="#FED150"/>
<path d="M51.1001 84.6699C51.1301 84.6299 51.1899 84.4902 51.1899 84.4902C51.1899 84.4902 51.2598 84.6299 51.2998 84.6699C51.3398 84.6999 51.48 84.7598 51.48 84.7598C51.48 84.7598 51.3398 84.8301 51.2998 84.8701C51.2698 84.9101 51.21 85.0596 51.21 85.0596C51.21 85.0596 51.1401 84.9101 51.1001 84.8701C51.0601 84.8401 50.9102 84.7803 50.9102 84.7803C50.9102 84.7803 51.0601 84.7099 51.1001 84.6699Z" fill="#F7F7FC"/>
<path d="M164.33 43.6904C164.33 43.6904 168.14 62.6903 178.49 78.3203C178.49 78.3203 170.86 53.9004 164.33 43.6904Z" fill="#353A66"/>
<path d="M193.439 42.7002C193.439 42.7002 184.619 59.9499 183.029 78.6299C183.029 78.6299 192.219 54.7602 193.439 42.7002Z" fill="#FFB025"/>
<path d="M219.65 60.75C219.65 60.75 201.43 67.3299 187.51 79.8799C187.51 79.8799 210.53 68.73 219.65 60.75Z" fill="#D086E5"/>
<path d="M224.919 83.8305C224.919 83.8305 205.95 79.9307 187.52 83.3607C187.52 83.3607 212.969 85.8705 224.919 83.8305Z" fill="#7585F8"/>
<path d="M219.19 106.33C219.19 106.33 205.34 92.79 187.98 85.71C187.98 85.71 208.04 101.58 219.19 106.33Z" fill="#353A66"/>
<path d="M192.05 121.14C192.05 121.14 190.99 101.79 182.98 84.8496C182.98 84.8496 187.04 110.1 192.05 121.14Z" fill="#FFB025"/>
<path d="M160.029 118.69C160.029 118.69 172.239 103.65 177.689 85.71C177.689 85.71 163.729 107.15 160.029 118.69Z" fill="#353A66"/>
<path d="M140.279 82.8801C140.279 82.8801 159.289 86.63 177.689 83.05C177.689 83.05 152.209 80.7501 140.279 82.8801Z" fill="#7585F8"/>
<path d="M152.971 65.2695C152.971 65.2695 163.09 74.9604 175.69 79.9404C175.69 79.9404 161.071 68.6195 152.971 65.2695Z" fill="#FFB025"/>
<path d="M152.561 99.3398C152.561 99.3398 165.841 94.8803 176.101 86.0303C176.101 86.0303 159.291 93.7298 152.561 99.3398Z" fill="#D086E5"/>
<path d="M178.96 114.2C178.96 114.2 182.07 100.54 179.87 87.1699C179.87 87.1699 177.67 105.53 178.96 114.2Z" fill="#353A66"/>
<path d="M199.63 106.47C199.63 106.47 195.13 95.9299 187.25 88.1299C187.25 88.1299 194.61 101.35 199.63 106.47Z" fill="#353A66"/>
<path d="M180.609 72.6797C180.609 72.6797 181.27 63.6999 178.6 55.4199C178.6 55.4199 178.959 67.2897 180.609 72.6797Z" fill="#353A66"/>
<path d="M189.65 72.2002C189.65 72.2002 197.191 67.2704 202.141 60.1104C202.141 60.1104 192.93 67.6202 189.65 72.2002Z" fill="#353A66"/>
<path d="M171.62 49.6301L172.87 52.1702C172.91 52.2402 172.98 52.29 173.06 52.3L175.85 52.7102C176.05 52.7302 176.13 52.9804 175.99 53.1204L173.97 55.0901C173.91 55.1501 173.88 55.2298 173.9 55.3098L174.37 58.0901C174.41 58.2901 174.2 58.4398 174.02 58.3498L171.52 57.0305C171.45 57.0005 171.37 57.0005 171.29 57.0305L168.79 58.3498C168.61 58.4398 168.41 58.2901 168.44 58.0901L168.92 55.3098C168.93 55.2298 168.9 55.1501 168.85 55.0901L166.83 53.1204C166.68 52.9804 166.76 52.7302 166.96 52.7102L169.759 52.3C169.839 52.29 169.91 52.2402 169.94 52.1702L171.19 49.6301C171.28 49.4501 171.53 49.4501 171.62 49.6301Z" fill="#FFB025"/>
<path d="M168.791 58.3496L168.911 58.2803L173.201 52.3203L173.061 52.2998C172.981 52.2898 172.911 52.2399 172.871 52.1699L172.461 51.3301L168.76 56.1904L168.44 58.0898C168.4 58.2898 168.611 58.4396 168.791 58.3496Z" fill="#FED150"/>
<path d="M171.521 57.0303L171.621 57.0898L174.641 52.5303L174.071 52.4404L170.551 57.4199L171.291 57.04C171.361 57 171.451 57.0003 171.521 57.0303Z" fill="#FED150"/>
<path d="M168.8 53.3096C168.84 53.2596 168.91 53.0898 168.91 53.0898C168.91 53.0898 168.99 53.2598 169.04 53.2998C169.08 53.3398 169.26 53.4102 169.26 53.4102C169.26 53.4102 169.08 53.49 169.04 53.54C169 53.59 168.93 53.7598 168.93 53.7598C168.93 53.7598 168.85 53.5898 168.8 53.5498C168.76 53.4998 168.58 53.4297 168.58 53.4297C168.58 53.4297 168.76 53.3496 168.8 53.3096Z" fill="#F7F7FC"/>
<path d="M206.43 97.9006L207.68 100.43C207.72 100.5 207.79 100.551 207.87 100.571L210.66 100.97C210.86 101 210.94 101.24 210.8 101.39L208.78 103.361C208.72 103.421 208.69 103.5 208.71 103.58L209.18 106.361C209.22 106.561 209.01 106.711 208.83 106.611L206.33 105.3C206.26 105.26 206.18 105.26 206.1 105.3L203.61 106.611C203.43 106.711 203.22 106.561 203.25 106.361L203.73 103.58C203.74 103.5 203.72 103.421 203.66 103.361L201.64 101.39C201.49 101.25 201.57 101 201.77 100.97L204.57 100.571C204.65 100.551 204.72 100.5 204.75 100.43L206 97.9006C206.09 97.7206 206.35 97.7206 206.43 97.9006Z" fill="#FFB025"/>
<path d="M203.601 106.61L203.731 106.55L208.011 100.58L207.871 100.56C207.791 100.55 207.721 100.5 207.681 100.43L207.271 99.5996L203.581 104.46L203.251 106.35C203.211 106.56 203.421 106.71 203.601 106.61Z" fill="#FED150"/>
<path d="M206.331 105.3L206.431 105.35L209.451 100.79L208.881 100.71L205.371 105.69L206.101 105.3C206.171 105.26 206.261 105.26 206.331 105.3Z" fill="#FED150"/>
<path d="M203.61 101.57C203.65 101.53 203.721 101.35 203.721 101.35C203.721 101.35 203.801 101.52 203.851 101.57C203.891 101.61 204.07 101.68 204.07 101.68C204.07 101.68 203.901 101.76 203.851 101.81C203.811 101.85 203.741 102.03 203.741 102.03C203.741 102.03 203.66 101.85 203.61 101.81C203.57 101.77 203.391 101.7 203.391 101.7C203.391 101.7 203.57 101.62 203.61 101.57Z" fill="#F7F7FC"/>
<path d="M164.459 99.6304L165.209 101.151C165.229 101.191 165.269 101.221 165.319 101.231L166.979 101.47C167.099 101.49 167.149 101.63 167.069 101.71L165.849 102.89C165.819 102.93 165.799 102.97 165.809 103.02L166.099 104.68C166.119 104.8 165.989 104.89 165.889 104.84L164.389 104.05C164.349 104.03 164.299 104.03 164.259 104.05L162.759 104.84C162.659 104.89 162.529 104.8 162.549 104.68L162.839 103.02C162.849 102.97 162.829 102.93 162.789 102.89L161.589 101.71C161.499 101.63 161.549 101.48 161.669 101.47L163.339 101.231C163.379 101.221 163.419 101.191 163.449 101.151L164.189 99.6304C164.249 99.5204 164.399 99.5204 164.459 99.6304Z" fill="#FFB025"/>
<path d="M162.771 104.84L162.84 104.8L165.4 101.24L165.32 101.23C165.27 101.22 165.231 101.19 165.211 101.15L164.961 100.65L162.751 103.55L162.561 104.68C162.541 104.8 162.671 104.89 162.771 104.84Z" fill="#FED150"/>
<path d="M164.391 104.05L164.451 104.08L166.26 101.36L165.911 101.31L163.82 104.28L164.26 104.05C164.3 104.03 164.351 104.03 164.391 104.05Z" fill="#FED150"/>
<path d="M162.771 101.83C162.801 101.8 162.84 101.7 162.84 101.7C162.84 101.7 162.891 101.8 162.911 101.82C162.941 101.85 163.041 101.89 163.041 101.89C163.041 101.89 162.94 101.94 162.92 101.97C162.89 101.99 162.851 102.1 162.851 102.1C162.851 102.1 162.8 102 162.78 101.97C162.75 101.94 162.641 101.9 162.641 101.9C162.641 101.9 162.751 101.85 162.771 101.83Z" fill="#F7F7FC"/>
<path d="M84.4712 111.179C84.4712 111.179 81.8412 113.6 84.9712 115.73C88.1012 117.87 102.091 107.92 104.231 102.4C105.271 99.7202 106.701 81.49 106.701 81.49C106.701 81.49 106.861 74.5793 103.901 79.0193C103.901 79.0193 102.911 82.97 103.581 85.28C104.231 87.58 99.1309 98.45 99.1309 98.45C99.1309 98.45 85.0512 109.149 84.4712 111.179Z" fill="#E28C71"/>
<path d="M80.2689 178.09C82.0789 181.04 83.989 181.97 83.369 179.92C82.739 177.87 82.879 177.66 83.369 177.34C89.699 173.27 102.889 176.34 110.249 169.06L101.979 161.58C100.759 162.5 99.6589 163.24 98.7489 163.66C91.9889 166.87 78.4689 175.13 80.2689 178.09Z" fill="#EE9D7F"/>
<path d="M80.5888 176.06C80.5888 176.06 78.8591 177.2 81.3291 179.63C83.7891 182.05 84.089 181.15 83.229 179.46C82.379 177.79 80.4988 177.8 80.5888 176.06Z" fill="#7585F8"/>
<path d="M84.9106 94.3894C84.9106 94.3894 83.7906 91.6598 81.1006 92.3698C73.5306 94.3498 61.5803 101.489 64.1103 112.599C67.4403 127.209 61.5804 123.57 59.3804 126.78C53.9604 134.7 65.6503 144.53 75.6103 137.28C81.1503 133.27 78.2204 121.159 79.6304 118.259C81.0504 115.369 83.9005 114.5 84.2905 109.62C84.6805 104.72 85.5205 98.5793 85.9805 97.3093C86.4205 96.0293 85.9106 94.7494 84.9106 94.3894Z" fill="#353A66"/>
<path d="M84.2986 109.611C84.4886 107.241 84.7689 104.6 85.0789 102.33C84.0689 102.17 83.7588 103.971 82.2488 103.941C82.2488 103.941 75.429 103.201 76.949 105.151C78.449 107.101 75.189 113.571 71.199 113.611C67.219 113.651 64.5486 121.41 68.0486 123.46C71.5686 125.51 69.9789 129.36 67.1189 130.41C61.1189 132.59 65.649 140.471 72.739 138.901C83.709 134.971 78.0986 123.29 80.5286 120.26C80.5686 120.2 79.2586 118.84 79.2986 118.79C79.4386 118.6 79.5489 118.44 79.6389 118.26C81.0489 115.36 83.8986 114.501 84.2986 109.611Z" fill="#353A66"/>
<path d="M95.959 133.46C95.959 133.46 93.5689 132.44 94.6489 122.85C95.1589 118.28 96.9091 117.97 93.1191 112.97C89.1991 107.8 82.1191 105.68 79.8691 109.02C75.6391 115.31 77.2589 118.43 77.6489 122.8C77.8889 125.34 80.0689 130.2 76.6289 136.64L95.959 133.46Z" fill="#EE9D7F"/>
<path d="M75 135.91C75 135.91 87.92 137.5 95.96 133.46C95.96 133.46 99.1901 119.26 94.3101 114.64C94.3101 114.64 90.2702 117.08 86.9902 112.45C84.3402 108.71 80.9902 107.97 80.9902 107.97C80.9902 107.97 79.6802 108.63 78.7402 109.39C77.1402 110.66 76.6099 112.27 76.6099 112.27L75 135.91Z" fill="#FCDCDA"/>
<path d="M79.8594 98.75C79.8594 98.75 83.0894 104.67 82.1294 107.14C81.5794 108.55 88.5197 111.31 87.7397 109.82C86.2797 107.08 86.5194 105.91 87.8994 103.52L79.8594 98.75Z" fill="#E67052"/>
<path d="M85.441 94.4097C87.681 96.3197 90.5112 105.039 88.4112 107.099C87.5012 107.999 83.401 108.72 80.691 103.49C79.811 101.79 78.081 99.03 79.501 95.94C80.141 94.53 82.831 92.1997 85.441 94.4097Z" fill="#EE9D7F"/>
<path d="M87.0603 94.6999C87.3403 95.8799 87.4304 96.5797 84.7004 96.4597C81.3504 96.3397 82.0604 98.6394 82.4504 99.4294C83.5804 101.709 79.5003 99.5998 80.8703 102.33C82.2603 105.06 78.36 101.9 78.03 101.5C77.69 101.11 76.4603 99.3397 78.1003 95.2097C79.7303 91.0597 86.2003 91.0899 87.0603 94.6999Z" fill="#353A66"/>
<path d="M49.4107 146.911C47.5807 149.851 47.4808 152.19 48.9708 150.81C50.4508 149.44 50.6707 149.51 51.1207 149.92C56.7207 155.17 58.7807 170.15 67.4107 175.35L70.7506 164.02C69.5606 163.05 68.5607 162.15 67.8907 161.34C62.8507 155.34 51.2407 143.971 49.4107 146.911Z" fill="#EE9D7F"/>
<path d="M51.2002 146.54C51.2002 146.54 49.65 145.11 48.5 148.56C47.34 152 48.1998 152.01 49.2998 150.51C50.3898 149.02 49.7202 147.05 51.2002 146.54Z" fill="#7585F8"/>
<path d="M75 135.91C75 135.91 83.3801 136.94 90.8501 135.22C92.8301 133.93 87.5598 131.78 84.7598 131.6C81.5498 131.39 84.3298 127.81 88.0698 127.71C91.7998 127.6 93.4601 124.97 89.8901 125.42C86.3501 125.88 83.82 122.64 84.77 119.41C85.71 116.17 83.7798 112.95 83.7798 112.95L76.6699 112.1C76.6299 112.2 76.6099 112.27 76.6099 112.27L75 135.91Z" fill="#EFBEBD"/>
<path d="M79.3496 136.43C79.3496 136.43 99.5194 172.1 109.399 170.11C119.269 168.11 97.6694 135.95 96.1494 132.53C96.1494 132.53 85.5096 137.68 79.3496 136.43Z" fill="#EF9C16"/>
<path d="M84.7305 170.85L87.7705 175.88C87.7705 175.88 106.61 177.31 111.38 168.79L104.67 159.46L84.7305 170.85Z" fill="#EF9C16"/>
<path d="M75.0701 134.5C75.0701 134.5 61.7703 169.39 68.9603 177.26C76.1503 185.13 89.9104 144 91.8704 134.5C91.8704 134.5 77.2601 138.42 75.0701 134.5Z" fill="#EF9C16"/>
<path d="M58.4204 150.63L54.3105 156.42C54.3105 156.42 62.9604 177.62 71.1904 178.31L75.3804 165.73L58.4204 150.63Z" fill="#EF9C16"/>
<path d="M83.5191 113.35C83.5191 113.35 85.7492 110.55 82.3292 108.92C78.9092 107.28 66.609 119.26 65.339 125.05C64.719 127.86 66.109 146.09 66.109 146.09C66.109 146.09 67.0091 152.95 69.2491 148.1C69.2491 148.1 69.6192 144.051 68.6192 141.871C67.6092 139.691 70.9894 128.17 70.9894 128.17C70.9894 128.17 83.2591 115.43 83.5191 113.35Z" fill="#E28C71"/>
<path d="M169.189 195.62C170.839 194.36 170.819 194.11 170.549 193.55C170.309 193.07 170.01 192.6 169.68 192.11L172.97 190.89C173.35 192.08 173.599 193.15 173.669 193.99C173.409 194.24 171.229 196.17 169.189 195.62Z" fill="#EE9D7F"/>
<path d="M173.681 193.99C173.691 193.98 173.721 193.94 173.721 193.94C174.901 196.76 170.8 197.48 168.51 197.38C166.21 197.26 169.19 195.62 169.19 195.62C171.23 196.17 173.411 194.24 173.681 193.99Z" fill="#7585F8"/>
<path d="M149.97 135.76C149.97 135.76 149.73 142.54 150.68 146.62C153.86 160.31 154.76 158.74 155.9 162.51C157.83 168.92 163.29 184.76 169.7 192.78C170.46 193.72 174.09 192.03 173.98 190.53C173.26 180.42 173.09 175.87 168.68 165.62C168.68 165.62 170.93 157.14 170.94 153.09C170.95 148.33 170.43 136.96 167.07 132.21L149.97 135.76Z" fill="#644FC1"/>
<path d="M149.529 197.18C151.399 196.3 151.449 196.05 151.299 195.45C151.169 194.93 150.97 194.4 150.75 193.85L154.209 193.36C154.339 194.6 154.369 195.7 154.259 196.54C153.939 196.72 151.399 198.15 149.529 197.18Z" fill="#EE9D7F"/>
<path d="M154.259 196.54C154.269 196.52 154.31 196.5 154.31 196.5C154.87 199.51 150.71 199.34 148.48 198.75C146.26 198.15 149.529 197.18 149.529 197.18C151.399 198.15 153.939 196.72 154.259 196.54Z" fill="#7585F8"/>
<path d="M158.551 79.8703C158.551 79.8703 154.061 74.0101 156.411 74.3801C158.751 74.7601 159.581 75.9007 160.761 79.4807L158.551 79.8703Z" fill="#FFAA83"/>
<path d="M153.979 112.161C153.879 113.441 154.899 117.01 157.529 115.85C161.709 114.01 166.659 102.771 167.139 99.4408C167.619 96.1208 160.759 78.9701 160.759 78.9701C160.759 78.9701 158.939 78.2406 158.159 79.9906L159.309 98.8901C159.309 98.8901 154.309 107.721 153.979 112.161Z" fill="#FCDCDA"/>
<path d="M143.43 134.61C143.43 134.61 141.76 141.18 141.81 145.36C142.03 159.42 143.239 158.08 143.549 162C144.089 168.68 146.06 185.31 150.62 194.51C151.16 195.59 155.08 194.71 155.29 193.21C156.72 183.19 157.52 178.71 155.38 167.74C155.38 167.74 159.39 159.94 160.25 155.99C161.26 151.33 163.17 140.11 160.88 134.76L143.43 134.61Z" fill="#8D75F7"/>
<path d="M149.63 105.89C146.25 108.6 143.5 115.06 142.63 136.02C142.44 140.63 169.16 141.08 169.14 136.47C169.08 124.18 166.86 119.19 163.08 108.22C162.05 105.23 156.3 100.48 149.63 105.89Z" fill="#FCDCDA"/>
<path d="M139.52 78.47C139.52 78.47 143.079 73.6005 140.879 74.4905C138.679 75.3805 137.619 74.8399 137.279 78.5999L139.52 78.47Z" fill="#FFAA83"/>
<path d="M151.26 108.9C151.65 110.12 151.461 113.83 148.641 113.28C144.151 112.43 136.79 102.6 135.58 99.4803C134.36 96.3503 137.17 78.0994 137.17 78.0994C137.17 78.0994 138.781 76.9796 139.931 78.5096L143.07 97.1697C143.07 97.1697 149.95 104.65 151.26 108.9Z" fill="#FCDCDA"/>
<path d="M151.641 85.64C148.761 86.1 145.281 88.5703 145.451 94.2503C145.621 99.9303 145.471 100.051 143.631 102.191C138.921 107.701 150.581 109.641 146.611 114.741C129.611 136.671 169.151 132.671 167.431 127.531C164.111 117.631 171.141 119.78 169.571 112.35C168.941 109.41 173.151 105.99 167.361 102.41C165.451 101.23 168.631 94.4506 164.031 93.2806C159.431 92.1006 162.661 83.87 151.641 85.64Z" fill="#353A66"/>
<path d="M180.299 138.03L176.43 138.07L179.56 143.73L182.069 144.21L180.299 138.03Z" fill="#FCDCDA"/>
<path d="M18.4697 91.0498L14.6094 90.8496L17.9795 85.3301L21.3496 88.5498L18.4697 91.0498Z" fill="#353A66"/>
<path d="M34.2505 99.2695L33.1904 95.5498L28.5703 100.08L28.7603 102.63L34.2505 99.2695Z" fill="#E03D51"/>
<path d="M216.95 124.34L215.88 120.63L211.26 125.15L211.46 127.7L216.95 124.34Z" fill="#353A66"/>
<path d="M211.76 134.5L207.891 134.53L211.03 140.19L213.541 140.67L211.76 134.5Z" fill="#FCDCDA"/>
<path d="M16.5 74.6699L19.1899 74.5303L16.8398 70.6797L14.5 72.9297L16.5 74.6699Z" fill="#353A66"/>
<path d="M198.28 130.12L197.26 126.55L192.811 130.9L193 133.35L198.28 130.12Z" fill="#E03D51"/>
<path d="M141.2 39.3701L137.33 39.4102L140.47 45.0703L142.98 45.5498L141.2 39.3701Z" fill="#FCDCDA"/>
<path d="M156.77 42.8701L155.7 39.1504L151.08 43.6797L151.28 46.2305L156.77 42.8701Z" fill="#353A66"/>
<path d="M172.661 35.8301L168.801 35.8701L171.931 41.5303L174.441 42.0098L172.661 35.8301Z" fill="#FCDCDA"/>
<path d="M150.451 28.0596L149.431 24.4902L144.98 28.8398L145.17 31.29L150.451 28.0596Z" fill="#E03D51"/>
</svg>
