<svg width="207" height="158" viewBox="0 0 207 158" fill="none" xmlns="http://www.w3.org/2000/svg">
<path opacity="0.5" d="M155.61 71.625C173.91 49.055 163.13 26.955 140.08 10.875C124.66 0.114983 84.3805 -8.91527 59.9605 15.8647C38.7005 37.4147 46.0905 59.3547 57.0605 70.0347C44.8405 74.4547 33.8804 83.8647 32.0104 97.0947C29.2604 116.535 44.2105 131.235 60.0605 137.595C81.1205 146.055 107.37 147.305 129.26 142.675C147.34 138.845 168.031 129.855 172.831 108.575C176.781 91.0647 169.62 77.275 155.61 71.625Z" fill="#D7CFF9"/>
<path d="M206.28 151.345C206.28 154.925 160.11 157.835 103.14 157.835C46.18 157.835 0 154.925 0 151.345C0 147.765 46.18 144.855 103.14 144.855C160.11 144.855 206.28 147.765 206.28 151.345Z" fill="#ACBFE2"/>
<path d="M181.16 78.2949C181.16 118.205 148.8 150.565 108.88 150.565C68.9596 150.565 36.5996 118.205 36.5996 78.2949C36.5996 38.3649 68.9596 6.00488 108.88 6.00488C148.8 6.00488 181.16 38.3649 181.16 78.2949Z" fill="#AA99EC"/>
<path d="M115.329 105.155C117.429 108.575 115.309 113.694 110.589 116.594C105.879 119.484 100.349 119.065 98.2593 115.645L74.1193 76.3347C72.0193 72.9147 74.1393 67.8046 78.8593 64.9046C83.5693 62.0046 89.0994 62.4348 91.1994 65.8548L115.329 105.155Z" fill="#F6F5F7"/>
<path d="M114.449 113.735C111.559 118.445 105.389 119.925 100.679 117.035C95.9493 114.135 94.4793 107.965 97.3793 103.245L130.629 49.0449C133.529 44.3249 139.699 42.8551 144.419 45.7451C149.129 48.6451 150.609 54.8049 147.719 59.5249L114.449 113.735Z" fill="#F6F5F7"/>
<path d="M55.8297 68.275C56.8297 67.805 60.1296 67.5549 61.8496 70.1549C64.1596 73.6349 64.9596 82.1052 70.1296 84.6652C75.3196 87.2052 78.5497 85.0351 80.8997 83.8551C83.2497 82.6851 83.6397 81.0951 85.0897 80.5651C86.5297 80.0351 87.0997 81.7848 83.7797 84.5748C82.1697 85.9148 75.1197 93.4548 68.3997 91.5748C59.5797 89.0848 49.8997 70.975 55.8297 68.275Z" fill="#E28C71"/>
<path d="M63.5008 122.985C62.0608 131.825 60.8908 150.565 64.7708 150.425C68.6608 150.275 70.7409 148.845 68.4609 148.295C66.1609 147.745 66.0808 147.484 66.1008 146.784C66.2808 142.364 69.7008 133.945 70.9908 127.505C72.4908 120.035 64.7808 115.255 63.5008 122.985Z" fill="#F27851"/>
<path d="M63.0098 148.645C63.0098 148.645 66.4898 149.905 68.4598 148.295C68.4598 148.295 72.3098 148.615 69.9698 149.785C67.6498 150.965 63.0798 152.105 63.0098 148.645Z" fill="#6E86CC"/>
<path d="M49.2693 86.645C49.2693 86.645 69.2793 100.685 72.1593 107.875C74.7393 114.335 68.7493 140.365 68.7493 140.365C68.7493 140.365 64.5293 142.045 60.6593 139.675L61.1593 119.425L44.2793 103.985L49.2693 86.645Z" fill="#4829D3"/>
<path d="M36.3604 124.085C28.9704 130.185 14.8304 144.464 18.0704 147.074C21.3004 149.684 23.9904 149.995 22.5304 147.965C21.0804 145.905 21.1804 145.625 21.7004 145.085C24.9604 141.655 33.6304 137.265 39.1904 132.995C45.6704 128.035 42.8204 118.755 36.3604 124.085Z" fill="#F27851"/>
<path d="M17.891 144.405C17.891 144.405 19.811 147.865 22.531 147.965C22.531 147.965 25.4011 150.915 22.7011 150.225C20.0111 149.525 15.541 147.245 17.891 144.405Z" fill="#6E86CC"/>
<path d="M46.3005 86.5449C46.3005 86.5449 56.6806 110.195 53.9506 118.005C51.4906 125.035 28.3505 141.775 28.3505 141.775C28.3505 141.775 23.7605 140.155 22.3105 135.515L36.9606 119.565C36.9606 119.565 31.1005 101.135 33.9805 94.2949C34.0805 94.0649 33.5806 95.9248 33.5806 95.9248L46.3005 86.5449Z" fill="#4829D3"/>
<path d="M58.7894 97.005C62.6194 91.945 64.7894 84.1053 64.9394 78.0153C65.1494 69.5753 57.6895 67.3952 52.9495 66.9552C48.2095 66.4952 40.4594 65.5749 40.7794 76.0949C40.9894 83.4349 38.3194 87.275 34.5994 93.485C34.4994 93.645 34.3994 93.7852 34.2994 93.9352C34.2794 93.9352 34.2794 93.9152 34.2794 93.9152C34.2794 93.9252 34.2794 93.9352 34.2994 93.9352C29.0494 100.385 54.4294 102.745 58.7894 97.005Z" fill="#FCDCDA"/>
<path d="M34.5993 93.4851C34.4993 93.6451 34.3994 93.7853 34.2994 93.9353C34.2794 93.9353 34.2793 93.9152 34.2793 93.9152C34.2793 93.9252 34.2794 93.9353 34.2994 93.9353C30.2394 98.9253 44.4994 101.455 53.1794 99.7053C54.5294 97.6953 47.9994 97.155 45.5894 95.195C40.0194 90.685 59.8794 90.295 56.4594 88.635C52.7594 86.855 47.2694 87.565 49.6894 82.155C52.0994 76.745 50.0193 70.2752 47.7293 68.0852C45.3393 65.7952 41.3494 68.475 40.9094 73.465C40.7994 74.255 40.7393 75.1149 40.7793 76.0949C40.9893 83.4449 38.3193 87.2751 34.5993 93.4851Z" fill="#EFBEBD"/>
<path d="M53.6303 60.7651C53.6303 60.7651 54.6804 64.7651 51.7204 66.2451C48.6904 67.7451 57.9803 75.1551 58.1303 72.9551C58.3203 70.1251 57.2003 68.2147 59.1503 65.2847L53.6303 60.7651Z" fill="#E67052"/>
<path d="M60.7699 54.8847C62.7199 57.5447 63.4399 67.7951 60.5599 69.4951C59.2999 70.2151 55.0599 68.3451 53.0499 63.5151C52.2099 61.5451 51.4099 57.9651 53.8099 54.9751C54.8999 53.6151 58.4999 51.7847 60.7699 54.8847Z" fill="#EE9D7F"/>
<path d="M52.3293 54.8347C49.7893 58.0147 50.8993 61.0948 51.0793 61.6648C51.7393 63.7248 53.4193 65.6545 53.9293 65.0545C54.5393 64.3345 52.2292 63.5947 53.2892 61.5447C54.3492 59.4947 52.9993 58.7746 53.7093 56.9446C54.3893 55.1246 55.7392 55.7445 60.0092 55.8845C61.7592 55.9345 62.1992 55.3445 62.1392 54.6145C59.9692 51.5045 54.9893 51.4747 52.3293 54.8347Z" fill="#062440"/>
<path d="M62.4897 57.1051C63.5297 54.6351 67.2398 55.2252 66.0598 53.4752C65.2698 52.3052 65.2597 53.1849 56.4197 51.3849C52.2897 50.5449 51.4798 52.3049 50.6898 54.6349C49.9598 56.7749 50.1897 62.0552 53.0097 65.1652C55.8297 68.2752 52.9197 63.1053 54.0097 60.7653C55.0897 58.4253 55.7997 59.4148 57.3597 59.8048C58.9097 60.1848 60.8097 61.0851 62.4897 57.1051Z" fill="#353A66"/>
<path d="M45.99 67.4349C47.12 67.5249 49.0701 69.2248 49.3301 72.3748C49.6801 76.5848 47.29 84.1647 50.62 88.9647C53.96 93.7647 57.8901 93.4245 60.5501 93.5345C63.2201 93.6445 64.33 92.4446 65.87 92.6746C67.41 92.9046 67.05 94.7348 62.73 95.5848C60.67 95.9848 50.7201 99.2049 45.6901 94.2249C39.1001 87.7049 39.42 66.9149 45.99 67.4349Z" fill="#E28C71"/>
</svg>
